<svg xmlns="http://www.w3.org/2000/svg" viewBox="0 0 1154.81 1154.81">
  <path fill="#000000" d="M801.88,842.78c-8.1,47.41-30.86,89.85-63.42,122.39-41.2,41.2-98.19,66.73-161.09,66.73-125.41,0-227.2-101.41-227.74-226.71v-271.76h146.2v277.65c0,45.09,36.52,81.62,81.54,81.62,22.56,0,42.97-9.12,57.73-23.89,7.41-7.41,13.38-16.22,17.52-26.01h149.27Z"/>
  <path fill="#000000" d="M805.17,349.63v271.82h-146.18v-277.65c0-45.09-36.52-81.62-81.62-81.62-22.54,0-42.89,9.12-57.67,23.89-7.39,7.39-13.35,16.18-17.46,25.96h-149.32c8.08-47.39,30.83-89.77,63.44-122.39,41.18-41.2,98.12-66.73,161.01-66.73,125.49,0,227.2,101.41,227.8,226.71Z"/>
  <path fill="#000000" d="M1031.89,577.44c0,125.41-101.35,227.12-226.73,227.74h-271.75v-146.15h277.65c45.02,0,81.62-36.52,81.62-81.6,0-22.56-9.12-42.97-23.95-57.73-7.41-7.41-16.2-13.38-25.98-17.5v-149.3c47.44,8.1,89.83,30.86,122.4,63.44,41.26,41.26,66.73,98.19,66.73,161.09Z"/>
  <path fill="#000000" d="M621.39,349.63v146.2h-277.67c-45.02,0-81.6,36.52-81.6,81.62,0,22.54,9.17,42.95,23.95,57.73,7.39,7.39,16.18,13.37,25.96,17.48v149.25c-47.41-8.08-89.85-30.83-122.4-63.44-41.2-41.2-66.71-98.14-66.71-161.01,0-125.43,101.41-227.27,226.71-227.82h271.76Z"/>
</svg>
